<svg id="visual" viewBox="0 0 960 540" width="960" height="540" xmlns="http://www.w3.org/2000/svg" xmlns:xlink="http://www.w3.org/1999/xlink" version="1.1"><path d="M0 494L10.7 496.7C21.3 499.3 42.7 504.7 64 504.8C85.3 505 106.7 500 128 499.3C149.3 498.7 170.7 502.3 192 505.2C213.3 508 234.7 510 256 509.3C277.3 508.7 298.7 505.3 320 502.5C341.3 499.7 362.7 497.3 384 501.2C405.3 505 426.7 515 448 514.7C469.3 514.3 490.7 503.7 512 502C533.3 500.3 554.7 507.7 576 509.7C597.3 511.7 618.7 508.3 640 511C661.3 513.7 682.7 522.3 704 522.3C725.3 522.3 746.7 513.7 768 508.7C789.3 503.7 810.7 502.3 832 501.2C853.3 500 874.7 499 896 500.5C917.3 502 938.7 506 949.3 508L960 510L960 541L949.3 541C938.7 541 917.3 541 896 541C874.7 541 853.3 541 832 541C810.7 541 789.3 541 768 541C746.7 541 725.3 541 704 541C682.7 541 661.3 541 640 541C618.7 541 597.3 541 576 541C554.7 541 533.3 541 512 541C490.7 541 469.3 541 448 541C426.7 541 405.3 541 384 541C362.7 541 341.3 541 320 541C298.7 541 277.3 541 256 541C234.7 541 213.3 541 192 541C170.7 541 149.3 541 128 541C106.7 541 85.3 541 64 541C42.7 541 21.3 541 10.7 541L0 541Z" fill="#3b5249" stroke-linecap="round" stroke-linejoin="miter"></path></svg>